<svg width="52" height="52" viewBox="0 0 52 52" fill="none" xmlns="http://www.w3.org/2000/svg">
<rect width="52" height="52" rx="26" fill="#FCEC41"/>
<path d="M36.4742 33.4141L38.9868 35.033C38.9868 39.5295 38.9906 44.025 38.998 48.5195C36.2416 50.1688 33.2557 51.1652 30.0971 51.6902C29.4095 51.805 28.7006 51.7684 28.0303 51.9949H23.7657C22.946 51.7512 22.0868 51.7502 21.253 51.5887C18.3554 51.024 15.6153 50.048 13.0691 48.5418C13.0691 44.0385 13.0691 39.5359 13.0691 35.034L15.6082 33.4202C15.6082 36.076 15.6254 38.7309 15.6082 41.3857C15.6082 41.859 15.7432 41.9677 16.1992 41.9656C21.0742 41.9494 25.9411 41.9555 30.8121 41.9555C32.5203 41.9555 34.2286 41.9412 35.9369 41.9666C36.3685 41.9727 36.4803 41.8407 36.462 41.4253C36.4295 40.6484 36.4498 39.8694 36.4539 39.0894C36.4586 37.1956 36.4654 35.3038 36.4742 33.4141Z" fill="#2F323A"/>
<path d="M36.4741 33.414C36.464 35.3099 36.4545 37.203 36.4457 39.0934C36.4457 39.8714 36.4213 40.6504 36.4538 41.4293C36.4721 41.8447 36.3604 41.9768 35.9288 41.9707C34.2205 41.9453 32.5122 41.9595 30.8039 41.9595C25.9289 41.9595 21.062 41.9534 16.1911 41.9696C15.7351 41.9696 15.5959 41.863 15.6 41.3897C15.6213 38.7349 15.6061 36.08 15.6 33.4242C16.2338 32.9198 16.8675 32.4153 17.5013 31.9109C18.5372 31.0903 19.4482 30.1346 20.4141 29.2388C20.4923 29.3271 20.5745 29.4104 20.6466 29.5039C21.4739 30.595 22.6142 31.4081 23.9155 31.8345C25.2167 32.2609 26.617 32.2805 27.9297 31.8906C29.4887 31.4427 30.6841 30.4992 31.6469 29.2256C32.3426 29.8827 33.0352 30.5459 33.734 31.1949C34.5962 31.9921 35.5733 32.6554 36.4741 33.414Z" fill="#FFB603"/>
<path d="M20.5959 26.194C20.1815 25.4608 19.7377 24.7417 19.3609 23.9901C19.0288 23.3279 18.7627 22.6322 18.4854 21.9436C18.3991 21.7314 18.3199 21.6034 18.0528 21.6532C17.7399 21.7121 17.4576 21.5861 17.1976 21.4104C16.1464 20.6995 15.3695 18.8003 15.6173 17.5602C15.7057 17.1225 15.8956 16.767 16.312 16.5649C16.64 17.7836 17.0229 18.9811 17.8567 19.9764C17.6536 18.5992 17.5724 17.223 17.4881 15.8479C17.6739 15.8387 17.8588 15.8235 18.0446 15.8235C23.3482 15.8235 28.6522 15.8235 33.9564 15.8235C34.1413 15.8235 34.3271 15.8387 34.512 15.8468C34.4104 17.2606 34.3261 18.6764 34.0346 20.214C34.9335 19.042 35.3549 17.8233 35.6799 16.5578C36.3909 16.9183 36.4732 17.5795 36.4264 18.2498C36.364 19.2362 35.9785 20.1745 35.3296 20.9199C34.9457 21.3668 34.5059 21.7324 33.8549 21.641C33.6842 21.6166 33.6081 21.6897 33.5573 21.835C33.0555 23.2699 32.373 24.6351 31.526 25.8975C31.4846 25.9893 31.4572 26.0869 31.4448 26.1869C31.2335 26.2468 31.1167 26.4134 30.9918 26.5749C30.3824 27.3681 29.6817 28.0709 28.8265 28.6061C27.5062 29.4359 26.1036 29.7538 24.5781 29.2622C23.3899 28.8804 22.422 28.1765 21.5882 27.2564C21.2621 26.906 21.0164 26.4672 20.5959 26.194Z" fill="#FEFEFE"/>
<path d="M16.2653 12.0858C16.4767 10.9026 16.8889 9.76431 17.484 8.72005C17.6414 8.44989 17.6973 8.20005 17.5307 7.91466C17.4635 7.77857 17.4065 7.63769 17.3601 7.49317C17.0006 6.57911 17.1052 6.17286 17.8862 5.43653C18.459 4.89723 18.9191 4.82716 19.7326 5.25473C20.0982 5.4477 20.3552 5.41825 20.6883 5.18466C21.5567 4.56748 22.5309 4.11481 23.5625 3.84911C23.7347 3.81771 23.8953 3.74063 24.0275 3.62593C24.1597 3.51123 24.2587 3.36312 24.3141 3.19708C24.7579 2.06567 25.3561 1.73458 26.5292 1.957C27.1203 2.06973 27.4432 2.53083 27.6271 3.05184C27.7896 3.51395 28.0587 3.73739 28.534 3.86434C29.5472 4.14004 30.5028 4.59513 31.3554 5.20802C31.653 5.4213 31.8876 5.44973 32.2228 5.27809C33.2465 4.75302 34.1636 5.05872 34.6897 6.06825C34.9365 6.54255 34.8735 7.03614 34.6471 7.49013C34.3525 8.07309 34.4013 8.55247 34.7405 9.13138C35.2696 10.0353 35.5753 11.0468 35.7378 12.0909L16.2653 12.0858Z" fill="#FFB603"/>
<path d="M13.0701 48.5387C11.6259 47.7841 10.334 46.8121 9.09492 45.7609C7.74386 44.6092 6.5183 43.318 5.43867 41.9087C5.38091 41.8257 5.32834 41.7392 5.28125 41.6497C5.93023 40.2532 6.6493 38.9075 7.80508 37.8431C8.67141 37.0479 9.6332 36.408 10.792 36.1257C11.2592 36.0119 11.638 35.7194 12.0616 35.5163L13.063 35.0349C13.0664 39.5348 13.0687 44.0361 13.0701 48.5387Z" fill="#FFB603"/>
<path d="M34.512 15.8438C34.3271 15.8357 34.1413 15.8205 33.9564 15.8205C28.6521 15.8205 23.3482 15.8205 18.0446 15.8205C17.8588 15.8205 17.6739 15.8357 17.4881 15.8449C17.0718 15.7967 16.6515 15.7946 16.2348 15.8388C15.8285 15.7423 15.405 15.6773 15.1074 15.3309C14.9469 15.152 14.8343 14.9353 14.7802 14.701C14.7262 14.4667 14.7324 14.2226 14.7984 13.9914C14.8643 13.7601 14.9878 13.5494 15.1573 13.3789C15.3268 13.2084 15.5368 13.0837 15.7676 13.0163C15.8966 12.9767 16.0255 12.9402 16.1545 12.9026H35.8516C36.1969 13.0275 36.5737 13.0773 36.8499 13.3596C37.0273 13.5367 37.1548 13.7575 37.2194 13.9996C37.284 14.2418 37.2834 14.4968 37.2177 14.7386C37.152 14.9805 37.0236 15.2008 36.8454 15.377C36.6672 15.5533 36.4456 15.6793 36.203 15.7423C36.0567 15.7829 35.9074 15.8113 35.7602 15.8438C35.3454 15.7971 34.9267 15.7971 34.512 15.8438Z" fill="#FECF5C"/>
<path d="M46.7309 41.6467C46.085 42.643 45.2725 43.5012 44.4417 44.337C42.8293 45.974 40.998 47.3798 39 48.5143C38.9959 44.0192 38.9922 39.5237 38.9888 35.0278C40.1477 35.6067 41.3735 36.0526 42.5212 36.6376C44.6022 37.6999 45.8433 39.5423 46.7309 41.6467Z" fill="#FFB603"/>
<path d="M31.6499 29.2215C30.6871 30.4951 29.4917 31.4386 27.9327 31.8865C26.6199 32.2758 25.2196 32.2557 23.9186 31.8287C22.6175 31.4017 21.4775 30.5882 20.6507 29.4967C20.5786 29.4033 20.4963 29.32 20.4181 29.2316C20.412 28.6923 20.409 28.153 20.5197 27.6208C20.9777 27.9926 21.4256 28.3775 21.8959 28.738C24.2054 30.4788 26.9628 30.621 29.4491 29.1697C30.1976 28.7319 30.811 28.1256 31.5169 27.6381L31.6499 29.2215Z" fill="#FEFDFD"/>
<path d="M35.8516 12.9045H16.1545C16.121 12.6222 16.2246 12.3592 16.2642 12.092H35.7368C35.8296 12.3523 35.8686 12.6287 35.8516 12.9045Z" fill="#FFB603"/>
<path d="M31.5128 27.6332C30.8069 28.1207 30.1925 28.7271 29.445 29.1648C26.9587 30.6161 24.2013 30.4739 21.8918 28.7332C21.4216 28.3777 20.9777 27.9928 20.5156 27.616C20.5014 27.1386 20.477 26.6592 20.5958 26.1941C21.0163 26.4673 21.2621 26.905 21.5881 27.2656C22.4219 28.1857 23.3898 28.8906 24.5781 29.2714C26.1016 29.763 27.5031 29.4451 28.8265 28.6153C29.6816 28.0791 30.3794 27.3763 30.9918 26.5841C31.1167 26.4226 31.2335 26.256 31.4448 26.1961C31.4671 26.6748 31.4898 27.1539 31.5128 27.6332Z" fill="#E6E8ED"/>
<path d="M34.512 15.8436C34.9267 15.7969 35.3454 15.7969 35.7602 15.8436C35.7337 16.0843 35.7063 16.324 35.6799 16.5647C35.3539 17.8261 34.9334 19.0449 34.0346 20.221C34.3281 18.6762 34.4145 17.2655 34.512 15.8436Z" fill="#2F323A"/>
<path d="M16.2347 15.8437C16.6515 15.7995 17.0718 15.8016 17.488 15.8498C17.5723 17.2249 17.6536 18.6011 17.8567 19.9783C17.0208 18.983 16.6379 17.7865 16.3119 16.5668C16.2865 16.324 16.2611 16.0823 16.2347 15.8437Z" fill="#2F323A"/>
</svg>
