<svg width="52" height="52" viewBox="0 0 52 52" fill="none" xmlns="http://www.w3.org/2000/svg">
<rect width="52" height="52" rx="26" fill="#FCEC41"/>
<path d="M5.29138 41.6477C5.9231 40.2573 6.64318 38.9248 7.78068 37.8695C8.64407 37.06 9.67894 36.4556 10.8083 36.1013C11.8239 35.7804 12.7258 35.1944 13.6337 34.6429C15.9211 33.266 18.0282 31.6096 19.9062 29.712C19.9875 29.6298 20.0413 29.4591 20.2211 29.5373C19.8301 30.1467 19.4329 30.748 19.0511 31.3604C17.4061 34.0231 16.1836 36.9246 15.4273 39.9617C15.3258 40.368 15.4629 40.4269 15.8092 40.4218C16.706 40.4096 17.6028 40.4279 18.4986 40.4127C18.8622 40.4066 19.0155 40.4604 18.917 40.8941C18.6956 41.863 18.5615 42.8512 18.3401 43.8201C18.2548 44.1959 18.3655 44.3909 18.6651 44.5615C19.4824 45.0384 20.2273 45.6297 20.8772 46.3175C21.7283 47.2093 22.5092 48.1655 23.2131 49.1775C23.8621 50.0997 24.5842 50.9741 25.093 51.9898H23.5625C22.7358 51.7633 21.8755 51.7359 21.0397 51.5652C15.5018 50.4332 10.7934 47.8088 6.91435 43.6921C6.32224 43.0624 5.68748 42.4398 5.29138 41.6477Z" fill="#E8E9EA"/>
<path d="M36.3756 33.3206C37.7605 34.2893 39.2147 35.155 40.7266 35.9104C41.3177 36.2029 41.9798 36.2902 42.5608 36.6213C44.5677 37.7812 45.8423 39.5301 46.7188 41.6243C46.2942 42.4856 45.6016 43.1417 44.9638 43.8231C41.016 48.0102 35.7951 50.7752 30.1133 51.6881C29.4531 51.7897 28.793 51.8913 28.1318 51.9928H26.9141C27.5092 51.1346 28.0942 50.2663 28.7036 49.4192C30.0757 47.5119 31.5077 45.6614 33.5877 44.4427C33.8122 44.3117 33.8071 44.1583 33.7614 43.9349C33.5522 42.9121 33.3805 41.8823 33.1602 40.8626C33.082 40.498 33.1998 40.4096 33.5298 40.4137C34.3738 40.4228 35.2188 40.4137 36.0628 40.4137C36.8052 40.4137 36.7839 40.4188 36.6031 39.6784C36.3177 38.5124 35.878 37.3973 35.5032 36.2608C35.6403 35.886 35.7784 35.5102 35.9186 35.1253C36.1217 35.2695 35.9805 35.5082 36.1674 35.6575C36.4081 34.8795 36.3431 34.0955 36.3756 33.3206Z" fill="#E8E9EA"/>
<path d="M35.5032 36.2629C35.878 37.3994 36.3157 38.5146 36.6031 39.6805C36.7839 40.4209 36.8062 40.4158 36.0628 40.4158C35.2188 40.4158 34.3738 40.4229 33.5298 40.4158C33.1998 40.4158 33.0819 40.5001 33.1602 40.8647C33.3805 41.8803 33.5522 42.9142 33.7614 43.937C33.8071 44.1614 33.8122 44.3148 33.5877 44.4448C31.5077 45.6574 30.0757 47.51 28.7036 49.4214C28.0942 50.2704 27.5092 51.1367 26.9141 51.995H25.0859C24.5781 50.9793 23.855 50.1049 23.206 49.1827C22.5022 48.1706 21.7212 47.2145 20.8701 46.3227C20.2202 45.6349 19.4753 45.0436 18.658 44.5667C18.3584 44.396 18.2518 44.201 18.333 43.8253C18.5544 42.8564 18.6885 41.8682 18.9099 40.8993C19.0115 40.4656 18.8551 40.4117 18.4915 40.4178C17.5957 40.4331 16.6989 40.4178 15.8021 40.427C15.4558 40.4321 15.3166 40.3701 15.4202 39.9669C16.1766 36.9298 17.399 34.0283 19.044 31.3656C19.4259 30.7562 19.823 30.1468 20.214 29.5425C20.4506 29.446 20.4973 29.1607 20.7096 29.0398C20.7045 29.1552 20.6898 29.27 20.6659 29.3831C19.7722 32.3914 20.2597 35.2737 21.449 38.0951C21.449 38.15 21.4652 38.1906 21.5292 38.1967H21.5211C21.5202 38.2469 21.5257 38.2971 21.5373 38.346C22.4656 40.9521 23.3956 43.5588 24.3273 46.1663C24.893 47.7486 25.4597 49.331 26.0701 51.0362L30.6221 38.086L30.9075 37.375C31.5169 37.4431 32.1039 37.6035 32.7285 37.6594L31.9861 37.9458C32.9448 38.1896 33.8234 38.1012 34.5952 37.4634C34.9923 37.1292 35.2422 36.6935 35.5032 36.2629Z" fill="#F6F6F6"/>
<path d="M21.0458 28.2343C20.67 27.7021 20.2922 27.1709 19.9194 26.6377C19.3101 25.7694 18.916 24.7873 18.4133 23.8631C18.1543 23.0506 17.8862 22.233 17.6414 21.4123C17.5683 21.1602 17.415 20.9388 17.2047 20.7816C15.9859 19.7813 15.4365 18.4752 15.6355 16.902C15.7239 16.2022 16.0601 15.9361 16.7578 15.9463C17.0381 15.9463 17.0574 15.8142 17.0808 15.6233C17.5124 15.864 17.8445 16.2327 18.2173 16.5373C18.9739 17.1741 19.5457 17.2331 20.3765 16.7029C21.0081 16.3111 21.6949 16.016 22.4138 15.8274C23.9667 15.3998 25.5562 15.3917 27.1395 15.4628C28.7706 15.5349 30.3479 15.8579 31.7565 16.777C32.4594 17.2361 33.0413 17.1467 33.7055 16.6034C34.1118 16.2733 34.4652 15.8853 34.9192 15.6182C34.9426 15.8091 34.9619 15.9463 35.2422 15.9412C35.9389 15.931 36.2304 16.2022 36.3736 16.8938C36.6407 18.1827 35.8769 20.0484 34.7618 20.8091C34.5912 20.9259 34.4571 21.0335 34.4023 21.259C34.1743 22.1526 33.8824 23.0286 33.5288 23.8803C33.2079 24.5384 32.8873 25.1962 32.567 25.8537L31.1898 27.8849C31.078 27.971 31.002 28.0955 30.9766 28.2343C30.549 28.6121 30.1305 29.0001 29.6918 29.3657C27.6971 31.0313 25.1469 31.3452 22.8973 29.7953C22.2249 29.3302 21.6419 28.7787 21.0458 28.2343Z" fill="#FECF5B"/>
<path d="M15.9697 14.5152C15.6315 10.6558 16.967 7.51754 20.0779 5.19785C25.6537 1.03887 33.933 3.99332 35.6708 10.731C35.9755 11.909 36.0786 13.1301 35.9755 14.3425C35.9602 14.4055 35.944 14.4685 35.9287 14.5304C35.5377 14.3872 35.3031 14.0328 34.9537 13.8195C32.8758 12.5754 30.5865 12.0188 28.211 11.9121C26.194 11.8218 24.1637 11.7689 22.1477 12.0838C20.6135 12.3142 19.1228 12.7744 17.7257 13.4488C17.1021 13.7575 16.5902 14.2186 15.9697 14.5152Z" fill="#FE7058"/>
<path d="M30.9075 37.375C30.812 37.6117 30.7176 37.8493 30.6221 38.086C30.0493 38.28 29.4785 38.4831 28.9016 38.6649C27.3861 39.1353 25.784 39.2582 24.2145 39.0244C23.2669 38.8934 22.4138 38.4942 21.5251 38.1906H21.5333L21.453 38.089C20.2688 35.2686 19.7762 32.3853 20.67 29.377C20.6939 29.2639 20.7085 29.1491 20.7136 29.0337V29.0469C20.8091 29.0296 20.803 28.9931 20.7329 28.9453C20.7939 28.8438 20.8538 28.7422 20.9137 28.6335C21.0955 29.446 21.6135 30.0442 22.2269 30.5582C23.5158 31.6378 24.9996 32.0755 26.6815 31.9018C27.8105 31.7833 28.8809 31.3399 29.7629 30.6252C30.3722 30.1499 30.7785 29.508 31.2345 28.9139C31.265 28.9616 31.2954 29.0093 31.3269 29.0571C31.6937 30.1262 31.8841 31.2479 31.8906 32.3782C31.9068 33.211 31.7159 34.0194 31.6946 34.8451C31.4356 35.4707 30.4088 35.6688 29.6349 35.5002C29.2368 35.4139 28.8478 35.2869 28.4161 35.1671C28.6091 35.8689 29.0143 36.3381 29.5445 36.7281C29.9609 37.0317 30.4687 37.1323 30.9075 37.375Z" fill="#FECF5B"/>
<path d="M15.9697 14.5153C16.5903 14.2197 17.1021 13.7576 17.7288 13.453C19.1258 12.7778 20.6165 12.317 22.1508 12.0859C24.1668 11.7711 26.1971 11.8239 28.2141 11.9143C30.5886 12.0158 32.8788 12.5775 34.9568 13.8216C35.3062 14.0308 35.5408 14.3853 35.9318 14.5326C35.9785 14.7458 35.7947 14.8139 35.6799 14.9205C35.426 15.1562 35.1264 15.34 34.9192 15.6315C34.4653 15.8986 34.1067 16.2865 33.7056 16.6166C33.0413 17.16 32.4594 17.2494 31.7566 16.7903C30.3479 15.8712 28.7706 15.5482 27.1396 15.4761C25.5562 15.405 23.9667 15.4131 22.4138 15.8407C21.6949 16.0293 21.0082 16.3244 20.3765 16.7162C19.5457 17.2463 18.9739 17.1874 18.2173 16.5506C17.8446 16.2378 17.5124 15.8722 17.0808 15.6365C16.7599 15.2303 16.3049 14.9652 15.9453 14.5976C15.9436 14.5829 15.9449 14.5681 15.9491 14.5539C15.9532 14.5398 15.9603 14.5266 15.9697 14.5153Z" fill="#F0543F"/>
<path d="M30.9075 37.3749C30.4647 37.1373 29.962 37.0367 29.5466 36.7331C29.0164 36.3431 28.6112 35.8738 28.4182 35.1721C28.8519 35.2919 29.2409 35.4188 29.637 35.5052C30.4109 35.6738 31.4377 35.4757 31.6967 34.8501C31.9465 34.7871 32.0186 34.5647 32.0968 34.3677C32.7367 32.7498 32.6432 31.1451 31.9841 29.5556C31.8571 28.9351 31.5585 28.3968 31.1878 27.8931L32.565 25.8618C34.7435 27.8849 36.14 30.3072 36.3736 33.3226C36.3411 34.0975 36.4061 34.8816 36.1654 35.6585C35.9785 35.5092 36.1197 35.2706 35.9166 35.1263C35.7764 35.5113 35.6383 35.8871 35.5012 36.2618C35.2412 36.6924 34.9934 37.1281 34.5932 37.4572C33.8213 38.095 32.9428 38.1834 31.9841 37.9396L32.7265 37.6532C32.1039 37.5984 31.5128 37.4379 30.9075 37.3749Z" fill="#2F323A"/>
<path d="M31.2345 28.9087C30.7745 29.5059 30.3692 30.1447 29.7629 30.62C28.8809 31.3347 27.8105 31.7781 26.6815 31.8966C24.9996 32.0703 23.5158 31.6326 22.227 30.553C21.6176 30.0391 21.0956 29.4439 20.9138 28.6284L21.0458 28.2353C21.642 28.7787 22.2249 29.3301 22.8952 29.7912C25.1449 31.3411 27.6951 31.0273 29.6898 29.3616C30.1285 28.996 30.547 28.608 30.9745 28.2302C31.0609 28.4567 31.1482 28.6832 31.2345 28.9087Z" fill="#F8B54C"/>
<path d="M34.9192 15.6244C35.1223 15.338 35.427 15.1542 35.6799 14.9135C35.7947 14.8119 35.9785 14.7388 35.9318 14.5255C35.947 14.4636 35.9633 14.4006 35.9785 14.3376C37.1008 17.027 36.7808 19.5833 35.2615 22.0249C34.8914 22.6122 34.4477 23.1498 33.9412 23.6245C33.8244 23.7362 33.7309 23.9008 33.5288 23.8815C33.8823 23.0297 34.1742 22.1537 34.4022 21.2601C34.4571 21.0347 34.5912 20.927 34.7618 20.8102C35.879 20.0495 36.6407 18.1838 36.3736 16.895C36.2304 16.2034 35.9389 15.9322 35.2422 15.9423C34.9619 15.9525 34.9426 15.8154 34.9192 15.6244Z" fill="#2F323A"/>
<path d="M15.9453 14.5854C16.3048 14.9531 16.7578 15.2162 17.0808 15.6244C17.0574 15.8154 17.0381 15.9525 16.7578 15.9474C16.0601 15.9372 15.7239 16.2033 15.6355 16.9031C15.4324 18.4763 15.9849 19.7824 17.2047 20.7828C17.415 20.9399 17.5683 21.1613 17.6414 21.4135C17.8862 22.2341 18.1543 23.0476 18.4133 23.8642C17.9512 23.655 17.6668 23.2487 17.3662 22.875C15.4497 20.4933 14.8687 17.8405 15.7889 14.8952C15.8324 14.7878 15.8847 14.6842 15.9453 14.5854Z" fill="#2F323A"/>
<path d="M20.733 28.9453C20.8031 28.9951 20.8092 29.0316 20.7137 29.0469C20.7188 29.0093 20.7269 28.9748 20.733 28.9453Z" fill="#FEFDFD"/>
<path d="M21.5252 38.1876C22.4138 38.4923 23.267 38.8904 24.2145 39.0214C25.7841 39.2552 27.3861 39.1323 28.9017 38.6619C29.4785 38.4801 30.0493 38.277 30.6221 38.083L26.0742 51.0221C25.4648 49.3168 24.897 47.7345 24.3313 46.1521C23.4004 43.5467 22.4704 40.94 21.5414 38.3318C21.5302 38.2846 21.5247 38.2362 21.5252 38.1876Z" fill="#FE7159"/>
<path d="M21.4531 38.0859L21.5333 38.1875C21.4693 38.1875 21.4531 38.1448 21.4531 38.0859Z" fill="#FE7159"/>
<path d="M31.327 29.052C31.6063 29.1393 31.7007 29.4704 31.9861 29.5507C32.6452 31.1401 32.7387 32.7448 32.0988 34.3627C32.0206 34.5597 31.9485 34.7822 31.6987 34.8451C31.72 34.0235 31.9109 33.211 31.8906 32.3782C31.8847 31.2462 31.6943 30.1227 31.327 29.052Z" fill="#F9F9F8"/>
</svg>
