<svg width="52" height="52" viewBox="0 0 52 52" fill="none" xmlns="http://www.w3.org/2000/svg">
<rect width="52" height="52" rx="26" fill="#FCEC41"/>
<path d="M34.2367 31.1797L36.3594 32.3984C36.1491 34.1494 36.2101 35.9074 36.2954 37.6594C36.4477 40.8149 36.8702 43.9441 37.2958 47.0712C37.3923 47.7821 37.4278 48.5093 37.6939 49.1898C37.6596 49.2263 37.6211 49.2587 37.5791 49.2862C35.2183 50.461 32.6939 51.2732 30.0909 51.6953C29.4054 51.808 28.7026 51.7969 28.0302 51.9939H23.8672C23.8134 51.9624 23.7656 51.9045 23.7057 51.9015C22.3925 51.8416 21.1087 51.5866 19.8372 51.2759C17.942 50.8117 16.1017 50.1891 14.3843 49.2446C14.6179 47.5536 14.8698 45.8656 15.082 44.1726C15.5705 40.2624 15.9961 36.3462 15.6467 32.3913C16.3312 31.9323 17.1356 31.6804 17.7958 31.1807C17.8304 31.2552 17.856 31.3337 17.8719 31.4143C18.1441 35.1924 18.4224 38.9705 18.6672 42.7507C18.6977 43.2179 18.8337 43.3367 19.2847 43.3347C22.7033 43.3174 26.1209 43.3255 29.5425 43.3255C30.6424 43.3255 31.7423 43.3154 32.8423 43.3306C33.1825 43.3357 33.3287 43.2423 33.3237 42.8787C33.3186 42.4724 33.3805 42.0662 33.409 41.6599C33.6243 38.5724 33.8284 35.4849 34.0641 32.3984C34.0915 31.9922 34.0041 31.5595 34.2367 31.1797Z" fill="#FD7058"/>
<path d="M34.2367 31.1796C34.0041 31.5605 34.0915 31.9921 34.061 32.3984C33.8254 35.4849 33.6213 38.5724 33.4059 41.6599C33.3775 42.0661 33.3156 42.4724 33.3206 42.8786C33.3257 43.2422 33.1795 43.3356 32.8392 43.3306C31.7393 43.3153 30.6394 43.3255 29.5395 43.3255C26.1219 43.3255 22.7043 43.3174 19.2816 43.3346C18.8307 43.3346 18.6946 43.2178 18.6641 42.7506C18.4194 38.9705 18.1411 35.1924 17.8689 31.4142C17.8529 31.3336 17.8274 31.2552 17.7927 31.1806C18.457 30.6728 19.1567 30.2128 19.7366 29.5973C20.2093 29.1217 20.5882 28.5615 20.8538 27.9459C20.9087 28.1744 20.9615 28.4039 21.0204 28.6314C21.4561 30.3235 22.1051 31.9058 23.5168 33.0342C24.7477 34.0173 26.0945 34.4113 27.5945 33.6131C28.432 33.1676 29.1449 32.52 29.6684 31.7291C30.4464 30.5763 30.8283 29.2743 31.1431 27.9438C31.8155 29.3657 33.0078 30.292 34.2367 31.1796Z" fill="#2F323A"/>
<path d="M34.7456 17.0625C35.5631 17.0981 36.1603 17.6719 36.1481 18.4062C36.1359 19.1405 35.5215 19.7001 34.709 19.7163C34.4744 19.7163 34.2367 19.693 34.0133 19.7945L32.8149 19.8027C32.6747 19.7184 32.5183 19.7468 32.368 19.7468C28.1227 19.7468 23.8774 19.7468 19.632 19.7468C19.4817 19.7468 19.3274 19.7184 19.1852 19.8027L17.9938 19.7905C17.7724 19.6696 17.5317 19.7234 17.2991 19.7174C16.5425 19.7001 15.9727 19.2441 15.8641 18.5595C15.7625 17.9207 16.2277 17.2859 16.9518 17.0666C17.0463 17.0381 17.1356 16.9914 17.227 16.9538C18.8805 16.9538 20.5339 16.9538 22.1874 16.9711C22.553 16.9711 22.6332 16.8787 22.5702 16.4988C22.1985 14.2645 21.8847 12.0128 21.5008 9.77642C21.3586 8.95478 21.3627 8.09962 21.0234 7.31353C21.1392 7.15103 21.1128 6.96009 21.1311 6.77626C21.2093 5.97392 21.8634 5.30056 22.6698 5.29243C24.9041 5.26873 27.1358 5.26873 29.3648 5.29243C30.1641 5.29954 30.8131 5.9861 30.8709 6.80063C30.8821 6.96821 30.8709 7.13782 30.876 7.30845C30.8313 7.65884 30.7968 8.01024 30.742 8.3586C30.3093 11.114 29.8838 13.8714 29.4216 16.6227C29.3506 17.0463 29.512 17.0717 29.8279 17.0706C31.4722 17.0625 33.1094 17.0625 34.7456 17.0625Z" fill="#FE7058"/>
<path d="M19.1852 19.8046C19.3253 19.7203 19.4817 19.7488 19.632 19.7488C23.8773 19.7488 28.1227 19.7488 32.368 19.7488C32.5183 19.7488 32.6727 19.7203 32.8148 19.8046C32.9342 20.9196 32.8306 22.0471 32.5102 23.1216C32.4878 23.1968 32.5305 23.2466 32.5975 23.2781C32.0536 24.3938 31.4371 25.4727 30.7521 26.5077C30.2341 27.0156 29.7629 27.5569 29.2124 28.0363C27.3254 29.6795 24.6746 29.6795 22.7876 28.0363C22.2422 27.5579 21.7659 27.0156 21.2479 26.5077C20.537 25.4738 19.957 24.3678 19.3842 23.2577C19.3977 23.0913 19.3953 22.924 19.3771 22.7581C19.176 21.78 19.0633 20.7989 19.1852 19.8046Z" fill="#FEFDFC"/>
<path d="M14.3853 49.2386C11.6761 47.911 9.23232 46.0995 7.17438 43.8933C7.53086 41.9322 7.93 39.9812 8.66328 38.1175C9.14672 36.8876 9.70227 35.6962 10.5463 34.6644C10.6655 34.5008 10.8295 34.3753 11.0185 34.3028C12.5968 33.7503 14.1334 33.0942 15.6498 32.3904C15.9941 36.3422 15.5736 40.2584 15.0851 44.1716C14.8708 45.8596 14.6189 47.5476 14.3853 49.2386Z" fill="#2F323A"/>
<path d="M44.7728 43.9218C42.7326 46.0716 40.3364 47.8527 37.6899 49.1868C37.4238 48.5064 37.3852 47.7782 37.2917 47.0682C36.8662 43.9411 36.4437 40.812 36.2913 37.6564C36.206 35.9045 36.1451 34.1464 36.3553 32.3955C37.8462 33.1129 39.3773 33.7436 40.9409 34.2846C41.3329 34.4166 41.5289 34.7294 41.7371 35.029C42.9031 36.7048 43.549 38.6 44.0731 40.551C44.3737 41.6631 44.4945 42.8077 44.7728 43.9218Z" fill="#2F323A"/>
<path d="M34.7455 17.0625C33.1094 17.0625 31.4722 17.0625 29.836 17.0686C29.5151 17.0686 29.3536 17.0442 29.4298 16.6207C29.8888 13.8694 30.3144 11.1119 30.7501 8.35655C30.8049 8.00819 30.8395 7.65679 30.8841 7.3064C32.9977 8.6064 34.2712 10.4975 34.838 12.8923C35.1599 14.2939 35.0482 15.6782 34.7455 17.0625Z" fill="#F0543F"/>
<path d="M21.0234 7.3125C21.3626 8.09859 21.3586 8.95375 21.5008 9.77539C21.8847 12.0098 22.1985 14.2594 22.5702 16.4978C22.6332 16.8777 22.553 16.9741 22.1873 16.9701C20.5339 16.9548 18.8805 16.9569 17.227 16.9528C16.7773 15.1507 16.9013 13.2531 17.5819 11.5249C18.2625 9.79667 19.4656 8.32403 21.0234 7.3125Z" fill="#F0543F"/>
<path d="M31.1482 27.9409C30.8334 29.2713 30.4515 30.5734 29.6735 31.7261C29.1499 32.5171 28.437 33.1647 27.5996 33.6101C26.0995 34.4084 24.7559 34.0163 23.5219 33.0312C22.1102 31.9028 21.4612 30.3205 21.0255 28.6285C20.9666 28.401 20.9137 28.1714 20.8589 27.9429C20.8711 27.6382 20.9787 27.3599 21.0762 27.0786C21.6176 27.6067 22.0919 28.1897 22.6525 28.7036C24.443 30.3672 26.9455 30.5074 28.9016 29.051C29.6654 28.4822 30.2565 27.7489 30.9177 27.0817C30.9948 27.3694 31.0717 27.6558 31.1482 27.9409Z" fill="#FDFDFC"/>
<path d="M30.9177 27.0848C30.2565 27.752 29.6654 28.4853 28.9016 29.0541C26.9455 30.5105 24.443 30.3744 22.6525 28.7067C22.097 28.1898 21.6176 27.6068 21.0762 27.0817C21.127 26.8898 21.1179 26.6755 21.2479 26.512C21.7659 27.0198 22.2371 27.5611 22.7876 28.0405C24.6746 29.6838 27.3254 29.6838 29.2124 28.0405C29.7629 27.5611 30.2341 27.0167 30.7521 26.512C30.8811 26.6795 30.875 26.8888 30.9177 27.0848Z" fill="#E7E9ED"/>
<path d="M32.6016 23.275C32.5345 23.2435 32.4919 23.1938 32.5142 23.1186C32.8347 22.0441 32.9383 20.9165 32.8189 19.8016L34.0173 19.7935C33.8467 21.0782 33.5156 22.297 32.6016 23.275Z" fill="#2F323A"/>
<path d="M19.1852 19.8047C19.0633 20.802 19.176 21.7831 19.3771 22.7601C19.3953 22.9261 19.3977 23.0934 19.3842 23.2598C18.9079 22.8739 18.6966 22.3183 18.4834 21.777C18.2325 21.1412 17.9938 20.4943 17.9928 19.7925L19.1852 19.8047Z" fill="#2F323A"/>
</svg>
