<svg width="52" height="52" viewBox="0 0 52 52" fill="none" xmlns="http://www.w3.org/2000/svg">
<rect width="52" height="52" rx="26" fill="#FCEC41"/>
<path d="M36.4934 33.4009C37.3374 33.9087 38.0595 34.6095 38.9898 34.9812C38.9898 39.3355 38.9898 43.6892 38.9898 48.0421C38.9898 48.1914 38.9593 48.3468 39.0721 48.4778C36.3167 50.1496 33.3226 51.1621 30.1539 51.6831C29.45 51.7999 28.7411 51.8863 28.0343 51.9878H23.5625C23.5198 51.8944 23.4335 51.8974 23.3502 51.8863C21.2881 51.6899 19.2589 51.2351 17.3103 50.5324C15.8386 50.0013 14.3904 49.4092 13.0802 48.5317V35.0208L15.5543 33.408C15.6558 33.5999 15.6101 33.8061 15.6101 34.0062C15.6101 36.4752 15.6213 38.9452 15.604 41.4142C15.604 41.8265 15.7056 41.9616 16.1382 41.9606C22.7337 41.9477 29.3295 41.9477 35.9257 41.9606C36.3624 41.9606 36.4548 41.8174 36.4518 41.4101C36.4355 38.9411 36.4426 36.4721 36.4457 34.0021C36.4477 33.8031 36.4772 33.602 36.4934 33.4009Z" fill="#54BFE9"/>
<path d="M36.4934 33.4009C36.4771 33.604 36.4477 33.8072 36.4477 34.0032C36.4477 36.4732 36.4375 38.9422 36.4538 41.4112C36.4538 41.8174 36.3644 41.9616 35.9277 41.9616C29.3315 41.9474 22.7357 41.9474 16.1403 41.9616C15.7096 41.9616 15.603 41.8276 15.606 41.4152C15.6233 38.9462 15.6152 36.4762 15.6121 34.0072C15.6121 33.8041 15.6558 33.601 15.5563 33.409C17.3021 32.1588 18.8977 30.7339 20.4221 29.2257C20.478 29.2876 20.5399 29.3455 20.5897 29.4115C22.5783 32.0146 25.8182 32.8647 28.8163 31.5657C29.9954 31.0579 30.8922 30.2088 31.6661 29.2104C32.8046 30.3551 33.9655 31.4763 35.2564 32.4523C35.6687 32.7651 36.08 33.084 36.4934 33.4009Z" fill="#2F323A"/>
<path d="M35.7175 16.5322C36.272 16.9182 36.4782 17.4818 36.4345 18.1186C36.3482 19.379 35.9003 20.484 34.9111 21.325C34.7809 21.4473 34.6256 21.5398 34.4559 21.5959C34.2863 21.6521 34.1065 21.6705 33.929 21.65C33.6964 21.6195 33.5959 21.7211 33.5227 21.9242C33.0411 23.2971 32.3905 24.6048 31.5859 25.8171C31.5252 25.9367 31.4792 26.0632 31.4488 26.1939C31.3194 26.235 31.207 26.3174 31.1289 26.4285C30.6394 27.0267 30.1488 27.6218 29.5354 28.1063C28.0719 29.2621 26.4794 29.8572 24.6076 29.2773C23.401 28.9036 22.4169 28.1957 21.5892 27.2522C21.2682 26.8886 20.9249 26.5412 20.5928 26.1908C20.2343 25.5622 19.8677 24.9396 19.5203 24.3048C19.1205 23.563 18.7809 22.7904 18.5047 21.9943C18.4113 21.7282 18.2894 21.6093 17.9969 21.651C17.7424 21.6755 17.4876 21.6077 17.2788 21.46C16.1484 20.7633 15.3136 18.7372 15.6406 17.4625C15.7422 17.0868 15.8539 16.7008 16.3374 16.6399C16.642 17.8414 17.0483 18.9961 17.8476 19.9772C17.6607 18.5675 17.5429 17.1629 17.4931 15.7522C17.742 15.9554 17.9949 16.1504 18.2406 16.3616C19.0064 17.0035 19.5447 17.04 20.3927 16.4906C20.9942 16.1147 21.6488 15.8316 22.3346 15.6507C23.9515 15.1926 25.61 15.2109 27.2624 15.284C28.8803 15.3541 30.4352 15.6903 31.8155 16.6247C32.4198 17.0309 33.0342 16.9365 33.5969 16.4916C33.9016 16.2509 34.1992 16.0031 34.4998 15.7583C34.4474 17.241 34.2947 18.7183 34.0427 20.1804C34.3034 19.8691 34.5308 19.5314 34.7212 19.1729C35.1965 18.3421 35.4118 17.4199 35.7175 16.5322Z" fill="#FEFEFD"/>
<path d="M16.055 14.3274C15.7807 12.8273 15.9707 11.3597 16.4683 9.9429C17.9227 5.80626 21.4449 3.23977 25.8242 3.07829C30.8678 2.8904 35.4869 6.95188 35.9632 11.9792C36.04 12.7866 36.0277 13.5999 35.9267 14.4045C35.4562 13.9458 34.9189 13.5609 34.3332 13.263C32.0622 12.1113 29.6298 11.6959 27.11 11.6786C26.3437 11.5253 25.5546 11.5253 24.7883 11.6786C24.2165 11.6948 23.6467 11.7131 23.075 11.771C20.5156 12.0331 18.1045 12.6759 16.055 14.3274Z" fill="#FE7058"/>
<path d="M16.055 14.3275C18.1046 12.6761 20.5157 12.0332 23.075 11.7711C23.6468 11.7132 24.2166 11.695 24.7884 11.6787H27.1101C29.6299 11.696 32.0623 12.1114 34.3332 13.2631C34.919 13.561 35.4562 13.9459 35.9267 14.4046L35.8414 14.6189C35.3652 14.9602 34.9176 15.3396 34.5028 15.7534C34.1982 15.9982 33.9036 16.246 33.6 16.4867C33.0373 16.9315 32.4228 17.028 31.8185 16.6197C30.4383 15.6884 28.8834 15.3492 27.2655 15.2791C25.6131 15.206 23.9546 15.1877 22.3377 15.6457C21.6519 15.8266 20.9973 16.1098 20.3958 16.4857C19.5478 17.0351 19.0095 16.9986 18.2437 16.3567C17.9979 16.1536 17.745 15.9504 17.4962 15.7473C17.0822 15.3339 16.6352 14.9548 16.1596 14.6139C16.1017 14.5306 16.0215 14.4493 16.055 14.3275Z" fill="#F0543F"/>
<path d="M13.0813 48.5367C11.1719 47.514 9.49711 46.1856 7.94523 44.6926C6.96034 43.7641 6.06814 42.742 5.28125 41.6406C5.93227 40.2188 6.67672 38.8629 7.85078 37.7965C8.70898 37.0175 9.65656 36.3878 10.8093 36.1166C11.2582 36.0151 11.6279 35.7236 12.0382 35.5276C12.3876 35.362 12.7339 35.1894 13.0813 35.0198C13.0819 39.5258 13.0819 44.0314 13.0813 48.5367Z" fill="#2F323A"/>
<path d="M46.739 41.6406C45.5203 43.3539 44.0405 44.8164 42.4246 46.1489C41.371 47.0117 40.2503 47.7891 39.0731 48.4737C38.9593 48.3447 38.9898 48.1873 38.9898 48.038C38.9898 43.685 38.9898 39.3314 38.9898 34.9771C40.0592 35.5549 41.1825 36.013 42.2896 36.5117C44.2385 37.3902 45.4735 39.0223 46.3998 40.9032C46.5156 41.15 46.6263 41.3988 46.739 41.6406Z" fill="#2F323A"/>
<path d="M31.6631 29.2093C30.8892 30.2077 29.9924 31.0537 28.8133 31.5646C25.8182 32.8605 22.5783 32.0135 20.5867 29.4104C20.5369 29.3444 20.475 29.2865 20.4191 29.2246C20.4191 28.6873 20.3856 28.15 20.5105 27.6199C20.7492 27.8088 20.993 27.9896 21.2215 28.1856C23.8733 30.4321 26.8226 30.8871 29.8279 28.9097C30.421 28.5187 30.8801 27.9591 31.5209 27.6402C31.571 28.1636 31.6184 28.6866 31.6631 29.2093Z" fill="#FCFDFD"/>
<path d="M31.527 27.6402C30.8861 27.9591 30.4271 28.5187 29.8339 28.9097C26.8287 30.8872 23.8793 30.4332 21.2275 28.1856C20.996 27.9896 20.7522 27.8088 20.5166 27.6199C20.5237 27.1426 20.4699 26.6622 20.5918 26.1909C20.9249 26.5444 21.2682 26.8887 21.5891 27.2522C22.4168 28.1958 23.401 28.9037 24.6075 29.2774C26.4793 29.8573 28.0718 29.2622 29.5354 28.1064C30.1447 27.6219 30.6393 27.0268 31.1289 26.4286C31.207 26.3175 31.3193 26.2351 31.4488 26.194C31.4725 26.674 31.4986 27.1561 31.527 27.6402Z" fill="#E5E9ED"/>
<path d="M34.5028 15.7533C34.9175 15.3396 35.3652 14.9602 35.8414 14.6189C35.9074 15.2638 35.7165 15.8915 35.7175 16.5323C35.4128 17.42 35.1965 18.3422 34.7242 19.1679C34.5338 19.5264 34.3064 19.8641 34.0458 20.1754C34.2977 18.7134 34.4504 17.236 34.5028 15.7533Z" fill="#2F323A"/>
<path d="M16.1596 14.6189C16.6351 14.9598 17.0821 15.3389 17.4961 15.7523C17.5479 17.163 17.6637 18.5676 17.8506 19.9773C17.0482 18.9962 16.643 17.8445 16.3403 16.64C16.2347 15.9707 16.1128 15.3024 16.1596 14.6189Z" fill="#2F323A"/>
<path d="M27.11 11.6797H24.7883C25.5546 11.5264 26.3437 11.5264 27.11 11.6797Z" fill="#E4785C"/>
</svg>
